<svg width="1133" height="537" viewBox="0 0 1133 537" fill="none" xmlns="http://www.w3.org/2000/svg">
<g clip-path="url(#clip0_28_457)">
<path d="M853.761 230.955V130.957C853.761 120.987 860.927 112.876 869.736 112.876H927.531C936.34 112.876 943.506 120.987 943.506 130.957V230.955C943.506 240.925 936.34 249.037 927.531 249.037H869.736C860.927 249.037 853.761 240.925 853.761 230.955Z" fill="#15803D"/>
<path d="M883.358 156.101H913.909V147.456H883.358V156.101Z" fill="#3F3D56"/>
<path d="M890.995 140.972H906.271V112.876H890.995V140.972Z" fill="#3F3D56"/>
<path d="M890.995 249.037H906.271V220.94H890.995V249.037Z" fill="#3F3D56"/>
<path d="M812.707 234.996H724.36C715.551 234.996 708.385 226.885 708.385 216.915V151.498C708.385 141.527 715.551 133.416 724.36 133.416H812.707C821.516 133.416 828.682 141.527 828.682 151.498V216.915C828.682 226.885 821.516 234.996 812.707 234.996Z" fill="#15803D"/>
<path d="M785.718 147.464H755.167V156.109H785.718V147.464Z" fill="#3F3D56"/>
<path d="M733.208 192.851V175.561H708.385V192.851H733.208Z" fill="#3F3D56"/>
<path d="M828.682 192.851V175.561H803.859V192.851H828.682Z" fill="#3F3D56"/>
<path d="M96.0578 421.987L81.3092 324.608C74.7557 281.338 103.05 241.296 141.785 239.026L352.04 226.7L402.22 133.09C408.872 120.679 420.766 113.101 433.591 113.101H584.664C596.539 113.101 606.573 123.068 608.114 136.396L611.951 211.299L988.594 212.575L1035.98 389.314L991.996 386.887L994.251 440.495L936.74 443.048L917.568 381.689C913.958 370.135 898.139 357.108 881.697 346.209C844.836 321.774 797.48 329.616 769.585 366.234C763.004 374.873 758.404 383.873 757.118 392.312L748.418 449.43L326.667 441.772L271.393 354.254C255.062 334.139 177.972 326.751 171.03 354.254L129.324 423.902L96.0578 421.987Z" fill="#E6E6E6"/>
<path d="M554.454 170.062L566.862 236.273L408.988 240.102L442.331 159.07C445.356 151.719 451.996 147.155 459.154 147.507L534.806 151.23C544.383 151.702 552.465 159.448 554.454 170.062Z" fill="white"/>
<path d="M387.562 234.996L419.137 143.096L410.87 133.739L359.37 222.232L369.834 240.102L387.562 234.996Z" fill="white"/>
<path d="M839.76 533.672C880.864 533.672 914.186 495.955 914.186 449.43C914.186 402.904 880.864 365.188 839.76 365.188C798.655 365.188 765.333 402.904 765.333 449.43C765.333 495.955 798.655 533.672 839.76 533.672Z" fill="#3F3D56"/>
<path d="M788.45 449.43C788.45 417.407 811.467 391.354 839.759 391.354C868.052 391.354 891.069 417.407 891.069 449.43C891.069 481.453 868.052 507.506 839.759 507.506C811.467 507.506 788.45 481.453 788.45 449.43ZM789.578 449.43C789.578 480.749 812.089 506.229 839.759 506.229C867.43 506.229 889.941 480.749 889.941 449.43C889.941 418.111 867.43 392.631 839.759 392.631C812.089 392.631 789.578 418.111 789.578 449.43Z" fill="white"/>
<path d="M795.78 449.43C795.78 476.922 815.47 499.209 839.76 499.209C864.049 499.209 883.739 476.922 883.739 449.43C883.739 421.938 864.049 399.651 839.76 399.651C815.47 399.651 795.78 421.938 795.78 449.43ZM868.348 437.51L860.555 443.258L857.562 438.059L868.348 437.51ZM856.485 466.745L858.56 461L865.094 470.729L856.485 466.745ZM836.532 486.445L842.015 475.917V486.445H836.532ZM836.532 425.495L842.015 414.967V425.495H836.532ZM812.17 470.729L818.704 461L820.779 466.745L812.17 470.729ZM808.916 437.51L819.702 438.059L816.708 443.258L808.916 437.51Z" fill="#E6E6E6"/>
<path d="M215.027 533.672C256.132 533.672 289.454 495.955 289.454 449.43C289.454 402.904 256.132 365.188 215.027 365.188C173.923 365.188 140.601 402.904 140.601 449.43C140.601 495.955 173.923 533.672 215.027 533.672Z" fill="#3F3D56"/>
<path d="M163.718 449.43C163.718 417.407 186.735 391.354 215.027 391.354C243.32 391.354 266.337 417.407 266.337 449.43C266.337 481.453 243.32 507.506 215.027 507.506C186.735 507.506 163.718 481.453 163.718 449.43ZM164.846 449.43C164.846 480.749 187.357 506.229 215.027 506.229C242.698 506.229 265.209 480.749 265.209 449.43C265.209 418.111 242.698 392.631 215.027 392.631C187.357 392.631 164.846 418.111 164.846 449.43Z" fill="white"/>
<path d="M171.048 449.43C171.048 476.922 190.738 499.209 215.027 499.209C239.317 499.209 259.007 476.922 259.007 449.43C259.007 421.938 239.317 399.651 215.027 399.651C190.738 399.651 171.048 421.938 171.048 449.43ZM243.615 437.51L235.823 443.258L232.829 438.059L243.615 437.51ZM231.753 466.745L233.828 461L240.362 470.729L231.753 466.745ZM211.8 486.445L217.283 475.917V486.445H211.8ZM211.8 425.495L217.283 414.967V425.495H211.8ZM187.438 470.729L193.972 461L196.047 466.745L187.438 470.729ZM184.184 437.51L194.97 438.059L191.976 443.258L184.184 437.51Z" fill="#E6E6E6"/>
<path d="M525.702 270.097H568.554V259.886H525.702V270.097Z" fill="#3F3D56"/>
<path d="M1129.69 470.547C1129.29 469.164 1126.27 469.773 1125.97 468.535C1125.68 467.302 1128.59 466.269 1130.82 462.794C1131.22 462.167 1133.75 458.219 1132.78 456.558C1130.94 453.41 1118.13 461.25 1115.06 456.851C1114.39 455.885 1114.11 454.228 1112.1 451.143C1111.3 449.916 1110.79 449.323 1110.17 449.341C1109.3 449.366 1108.99 450.597 1107.63 452.827C1105.58 456.172 1104.84 455.752 1103.49 458.493C1102.48 460.528 1102.36 461.828 1101.64 461.904C1100.62 462.013 1100.2 459.48 1098.95 459.381C1097.67 459.281 1096.39 461.784 1095.76 463.74C1094.57 467.41 1095.31 470.214 1095.47 473.01C1095.65 476.048 1095.23 480.495 1092.32 486.202L1064.81 535.805C1070.72 525.693 1087.49 498.119 1094.24 488.005C1096.19 485.085 1098.29 482.153 1101.52 481.601C1104.62 481.07 1108.4 482.809 1113.67 482.708C1114.29 482.696 1116 482.639 1116.42 481.61C1116.77 480.76 1115.91 480.021 1116.22 479.221C1116.64 478.149 1118.52 478.609 1121.08 477.897C1122.89 477.395 1124.11 476.566 1125.17 475.852C1125.49 475.637 1130.22 472.389 1129.69 470.547Z" fill="#F2F2F2"/>
<path d="M1057.65 482.128C1056.93 481.951 1056.32 483.808 1055.7 483.613C1055.09 483.418 1055.48 481.506 1054.61 479.266C1054.46 478.862 1053.47 476.316 1052.47 476.376C1050.58 476.49 1050.28 485.867 1047.49 486.305C1046.87 486.401 1046.08 486.077 1044.16 486.303C1043.4 486.393 1042.99 486.507 1042.82 486.853C1042.58 487.343 1043.03 487.871 1043.6 489.274C1044.46 491.378 1044.06 491.668 1044.86 493.208C1045.45 494.352 1045.98 494.793 1045.81 495.217C1045.56 495.817 1044.34 495.321 1043.94 495.986C1043.52 496.666 1044.24 498.097 1044.91 499.013C1046.16 500.731 1047.58 501.132 1048.84 501.848C1050.21 502.626 1052.02 504.141 1053.65 507.407L1067.23 537C1064.55 530.801 1057.43 513.529 1054.99 506.858C1054.29 504.932 1053.62 502.922 1054.31 500.97C1054.98 499.092 1056.82 497.494 1058.3 494.535C1058.47 494.189 1058.94 493.221 1058.62 492.692C1058.35 492.255 1057.78 492.518 1057.52 492.114C1057.18 491.573 1057.92 490.661 1058.35 489.033C1058.65 487.885 1058.65 486.964 1058.64 486.172C1058.64 485.934 1058.6 482.364 1057.65 482.128Z" fill="#F2F2F2"/>
<path d="M1071.19 489.348L1071.62 484.89L1071.88 484.61C1073.09 483.315 1073.85 481.943 1074.13 480.531C1074.17 480.306 1074.21 480.079 1074.25 479.848C1074.39 478.931 1074.56 477.792 1075.34 476.608C1075.78 475.949 1076.93 474.459 1078.12 474.979C1078.44 475.115 1078.66 475.351 1078.81 475.6C1078.84 475.557 1078.88 475.514 1078.93 475.467C1079.44 474.902 1079.8 474.695 1080.14 474.496C1080.41 474.343 1080.68 474.185 1081.15 473.764C1081.35 473.58 1081.52 473.414 1081.65 473.274C1082.07 472.853 1082.6 472.359 1083.34 472.554C1084.11 472.794 1084.38 473.631 1084.55 474.184C1084.87 475.172 1084.96 475.852 1085.03 476.302C1085.05 476.467 1085.08 476.652 1085.1 476.712C1085.27 477.196 1087.4 477.321 1088.2 477.373C1090 477.484 1091.56 477.58 1091.93 478.975C1092.2 479.973 1091.64 481.062 1090.22 482.297C1089.77 482.681 1089.33 482.947 1088.95 483.145C1089.18 483.399 1089.37 483.744 1089.38 484.214C1089.41 485.328 1088.4 486.182 1086.38 486.758C1085.88 486.902 1085.21 487.094 1084.33 487.046C1083.91 487.022 1083.55 486.95 1083.24 486.883C1083.19 487.083 1083.11 487.291 1082.96 487.488C1082.51 488.07 1081.78 488.217 1080.8 487.89C1079.71 487.547 1078.86 487.082 1078.1 486.672C1077.44 486.316 1076.87 486.011 1076.39 485.928C1075.5 485.787 1074.67 486.409 1073.68 487.236L1071.19 489.348Z" fill="#F2F2F2"/>
<path d="M1078.29 463.955L1074.37 464.619L1074.07 464.403C1072.65 463.406 1071.29 462.925 1070.01 462.972C1069.81 462.98 1069.6 462.999 1069.4 463.018C1068.58 463.096 1067.56 463.192 1066.35 462.64C1065.67 462.33 1064.11 461.446 1064.25 460.013C1064.29 459.627 1064.43 459.33 1064.61 459.102C1064.56 459.072 1064.52 459.04 1064.46 459.007C1063.85 458.588 1063.58 458.247 1063.33 457.919C1063.13 457.666 1062.92 457.406 1062.45 457.004C1062.24 456.827 1062.05 456.691 1061.9 456.576C1061.43 456.226 1060.88 455.767 1060.86 454.917C1060.87 454.008 1061.51 453.505 1061.94 453.171C1062.71 452.576 1063.26 452.298 1063.63 452.113C1063.77 452.046 1063.92 451.97 1063.96 451.933C1064.33 451.624 1063.9 449.262 1063.74 448.372C1063.38 446.372 1063.07 444.642 1064.16 443.878C1064.95 443.331 1066.02 443.668 1067.44 444.911C1067.88 445.299 1068.22 445.716 1068.48 446.089C1068.64 445.764 1068.89 445.47 1069.29 445.338C1070.23 445.027 1071.22 445.915 1072.22 447.975C1072.47 448.487 1072.81 449.176 1072.99 450.154C1073.07 450.614 1073.11 451.031 1073.13 451.387C1073.31 451.387 1073.51 451.427 1073.72 451.544C1074.33 451.888 1074.64 452.644 1074.61 453.804C1074.59 455.079 1074.41 456.136 1074.25 457.069C1074.11 457.883 1074 458.585 1074.05 459.13C1074.15 460.139 1074.89 460.89 1075.85 461.767L1078.29 463.955Z" fill="#F2F2F2"/>
<path d="M1078.82 450.637L1079.24 446.178L1079.51 445.898C1080.72 444.603 1081.47 443.231 1081.76 441.819C1081.8 441.595 1081.84 441.368 1081.87 441.136C1082.02 440.22 1082.19 439.08 1082.97 437.897C1083.41 437.237 1084.56 435.747 1085.75 436.267C1086.07 436.404 1086.29 436.639 1086.44 436.889C1086.47 436.845 1086.51 436.802 1086.55 436.755C1087.07 436.19 1087.43 435.983 1087.77 435.784C1088.04 435.631 1088.31 435.473 1088.78 435.052C1088.98 434.868 1089.14 434.702 1089.28 434.563C1089.7 434.141 1090.23 433.647 1090.96 433.843C1091.74 434.082 1092 434.919 1092.18 435.473C1092.49 436.461 1092.59 437.14 1092.66 437.59C1092.68 437.755 1092.71 437.94 1092.73 438C1092.9 438.484 1095.02 438.609 1095.83 438.662C1097.63 438.772 1099.18 438.868 1099.56 440.263C1099.83 441.262 1099.27 442.35 1097.85 443.585C1097.4 443.97 1096.96 444.235 1096.57 444.433C1096.81 444.687 1097 445.032 1097.01 445.503C1097.04 446.616 1096.03 447.47 1094.01 448.046C1093.51 448.191 1092.84 448.382 1091.96 448.334C1091.54 448.311 1091.18 448.239 1090.87 448.171C1090.82 448.371 1090.74 448.579 1090.58 448.777C1090.14 449.358 1089.41 449.506 1088.43 449.178C1087.34 448.836 1086.48 448.37 1085.73 447.961C1085.07 447.604 1084.5 447.299 1084.02 447.216C1083.13 447.075 1082.3 447.697 1081.31 448.524L1078.82 450.637Z" fill="#F2F2F2"/>
<path d="M1066.11 536.059L1065.42 535.285L1064.46 535.169C1064.46 535.067 1064.45 534.827 1064.45 534.453C1064.41 532.402 1064.3 526.16 1065.06 516.569C1065.6 509.874 1066.5 503.079 1067.73 496.367C1068.96 489.646 1070.24 484.644 1071.27 480.624C1072.04 477.592 1072.83 474.717 1073.59 471.916C1075.63 464.432 1077.56 457.362 1078.75 449.299C1079.02 447.499 1079.57 443.752 1078.43 439.329C1077.78 436.764 1076.65 434.35 1075.08 432.155L1076.6 430.77C1078.33 433.195 1079.57 435.869 1080.3 438.716C1081.56 443.62 1080.96 447.703 1080.67 449.664C1079.45 457.87 1077.51 465.008 1075.45 472.564C1074.69 475.355 1073.91 478.218 1073.14 481.237C1072.12 485.22 1070.85 490.178 1069.63 496.813C1068.42 503.444 1067.53 510.157 1067 516.768C1066.24 526.237 1066.36 532.386 1066.4 534.407C1066.41 535.485 1066.42 535.711 1066.11 536.059Z" fill="#F2F2F2"/>
<path d="M1070.92 434.693C1070.85 434.673 1070.77 434.651 1070.69 434.625C1069.09 434.117 1067.81 432.643 1066.88 430.243C1066.44 429.114 1066.34 427.926 1066.13 425.557C1066.1 425.192 1065.96 423.344 1066.13 420.894C1066.25 419.294 1066.4 418.651 1066.78 418.146C1067.21 417.584 1067.79 417.262 1068.4 417.1C1068.41 416.888 1068.47 416.681 1068.6 416.484C1069.1 415.669 1069.93 416.004 1070.39 416.179C1070.62 416.272 1070.9 416.39 1071.22 416.451C1071.73 416.55 1072.03 416.45 1072.49 416.3C1072.92 416.157 1073.46 415.978 1074.21 415.994C1075.69 416.017 1076.79 416.769 1077.15 417.017C1079.05 418.311 1079.71 420.375 1080.47 422.765C1080.62 423.244 1081.12 424.976 1081.24 427.205C1081.32 428.814 1081.14 429.473 1080.92 429.943C1080.49 430.911 1079.82 431.36 1078.16 432.304C1076.43 433.293 1075.56 433.788 1074.85 434.043C1073.19 434.632 1072.15 435.002 1070.92 434.693Z" fill="#F2F2F2"/>
<path d="M0 534.145C0 534.987 1.04342 535.663 2.34276 535.663H1120.74C1122.04 535.663 1123.08 534.987 1123.08 534.145C1123.08 533.302 1122.04 532.626 1120.74 532.626H2.34276C1.04342 532.626 0 533.302 0 534.145Z" fill="#CCCCCC" fill-opacity="0.6"/>
<path d="M568.281 524.554L583.938 524.552L591.387 456.194L568.278 456.196L568.281 524.554Z" fill="#FFB6B6"/>
<path d="M621.925 524.152C622.413 525.081 622.67 528.081 622.67 529.162C622.67 532.484 620.291 535.177 617.356 535.177L568.867 535.177C566.865 535.177 565.241 533.339 565.241 531.073V528.788C565.241 528.788 562.843 521.921 567.781 513.456C567.781 513.456 573.919 520.084 583.091 509.703L585.795 504.157L605.373 520.363L616.225 521.875C618.599 522.206 620.704 521.824 621.925 524.152Z" fill="#2F2E41"/>
<path d="M497.934 524.554L513.591 524.552L521.04 456.194L497.931 456.196L497.934 524.554Z" fill="#FFB6B6"/>
<path d="M551.578 524.152C552.066 525.081 552.323 528.081 552.323 529.162C552.323 532.484 549.944 535.177 547.009 535.177L498.52 535.177C496.517 535.177 494.894 533.339 494.894 531.073V528.788C494.894 528.788 492.495 521.921 497.434 513.456C497.434 513.456 503.572 520.084 512.744 509.703L515.448 504.157L535.026 520.363L545.878 521.875C548.252 522.206 550.357 521.824 551.578 524.152Z" fill="#2F2E41"/>
<path d="M565.802 57.7893L568.774 89.1906L534.096 85.8261L540.041 56.6678L565.802 57.7893Z" fill="#FFB6B6"/>
<path opacity="0.1" d="M565.802 57.7893L568.774 89.1906L534.096 85.8261L540.041 56.6678L565.802 57.7893Z" fill="black" fill-opacity="0.6"/>
<path d="M553.416 61.7144C566.002 61.7144 576.205 50.1661 576.205 35.9206C576.205 21.675 566.002 10.1267 553.416 10.1267C540.83 10.1267 530.628 21.675 530.628 35.9206C530.628 50.1661 540.83 61.7144 553.416 61.7144Z" fill="#FFB6B6"/>
<path d="M568.278 76.2936L606.425 101.527L593.926 169.937L602.461 261.897L596.516 487.313L559.857 482.827L554.903 291.056L526.169 489.556H490.57L496.445 275.355L514.279 184.516L503.381 85.8261L536.573 74.0507L568.278 76.2936Z" fill="#2F2E41"/>
<path d="M569.765 43.2101C569.765 43.2101 571.746 35.3598 576.205 35.9206C580.663 36.4813 581.654 31.9954 580.663 29.7525C579.673 27.5095 577.691 16.2948 577.691 16.2948C577.691 16.2948 578.682 8.44448 572.737 7.32302C566.792 6.20154 564.81 5.08007 563.82 2.83713C562.829 0.594177 547.967 -1.64876 543.013 1.71565C538.059 5.08006 534.095 11.5352 530.628 13.3542C527.16 15.1733 524.187 18.5377 526.169 24.1451C528.151 29.7525 531.025 40.7193 531.025 40.7193C531.025 40.7193 536.077 38.7242 537.068 42.0887C538.059 45.4531 534.095 40.9672 539.05 31.9954C544.004 23.0236 544.004 14.0519 551.93 17.4163C559.856 20.7807 568.774 19.6592 567.783 26.3881C566.792 33.1169 569.765 43.2101 569.765 43.2101Z" fill="#2F2E41"/>
<path d="M586.753 241.779C581.984 247.495 580.724 254.913 583.938 258.348C587.152 261.783 593.623 259.933 598.393 254.215C600.326 251.96 601.754 249.214 602.557 246.207L622.494 221.701L612.135 211.356L593.58 236.613C590.973 237.694 588.632 239.465 586.753 241.779Z" fill="#FFB6B6"/>
<path d="M606.023 100.966L639.597 165.709L644.571 195.265L612.241 241.711L598.563 222.006L614.727 195.265L588.615 143.189L606.023 100.966Z" fill="#2F2E41"/>
<path d="M511.627 235.751V159.416C511.627 147.781 519.99 138.316 530.269 138.316H633.36C643.639 138.316 652.002 147.781 652.002 159.416V235.751C652.002 247.386 643.639 256.851 633.36 256.851H530.269C519.99 256.851 511.627 247.386 511.627 235.751Z" fill="#15803D"/>
<path d="M561.761 186.496H597.412V176.408H561.761V186.496Z" fill="#3F3D56"/>
<path d="M594.49 256.174V235.998H565.524V256.174H594.49Z" fill="#3F3D56"/>
<path d="M595.85 159.169V138.993H566.884V159.169H595.85Z" fill="#3F3D56"/>
<path d="M522.061 227.2C526.83 232.916 528.09 240.334 524.876 243.769C521.662 247.204 515.191 245.354 510.421 239.636C508.488 237.381 507.06 234.635 506.257 231.628L486.32 207.122L496.68 196.777L515.234 222.034C517.841 223.114 520.182 224.886 522.061 227.2Z" fill="#FFB6B6"/>
<path d="M502.791 86.3868L469.218 151.129L464.244 180.686L496.574 227.132L510.252 207.427L494.087 180.686L520.2 128.61L502.791 86.3868Z" fill="#2F2E41"/>
<path d="M85.3264 395.099C102.142 395.099 115.774 381.67 115.774 365.104C115.774 348.538 102.142 335.109 85.3264 335.109C68.5108 335.109 54.8792 348.538 54.8792 365.104C54.8792 381.67 68.5108 395.099 85.3264 395.099Z" fill="#E6E6E6"/>
</g>
<defs>
<clipPath id="clip0_28_457">
<rect width="1133" height="537" fill="white"/>
</clipPath>
</defs>
</svg>
