<svg width="887" height="752" viewBox="0 0 887 752" fill="none" xmlns="http://www.w3.org/2000/svg">
<g clip-path="url(#clip0_31_991)">
<path d="M269.375 530.989C265.421 530.994 261.629 532.888 258.833 536.254C256.037 539.621 254.464 544.186 254.46 548.947V590.96C254.464 595.722 256.037 600.286 258.833 603.653C261.629 607.02 265.421 608.913 269.375 608.919H288.293C292.248 608.913 296.039 607.02 298.835 603.653C301.631 600.286 303.204 595.722 303.208 590.96V548.947C303.204 544.186 301.631 539.621 298.835 536.254C296.039 532.888 292.248 530.994 288.293 530.989H269.375Z" fill="#3F3D56"/>
<path d="M619.085 610.316H600.166C595.904 610.31 591.818 608.269 588.804 604.64C585.791 601.012 584.096 596.092 584.091 590.96V548.947C584.096 543.815 585.791 538.895 588.804 535.266C591.818 531.638 595.904 529.597 600.166 529.591H619.085C623.347 529.597 627.433 531.638 630.447 535.266C633.46 538.895 635.155 543.815 635.16 548.947V590.96C635.155 596.092 633.46 601.012 630.447 604.64C627.433 608.269 623.347 610.31 619.085 610.316Z" fill="#3F3D56"/>
<path d="M606.532 576.677H280.767C265.941 576.677 253.88 566.154 253.88 553.219V477.796L270.049 457.293H620.396L633.42 477.839V553.219C633.42 566.154 621.358 576.677 606.532 576.677Z" fill="#CCCCCC"/>
<path d="M618.875 495.025H271.906L268.38 429.928L270.624 423.267L283.666 384.624H604.766L622.401 428.505L618.875 495.025Z" fill="#CCCCCC"/>
<path d="M621.813 428.646L619.224 477.556H542.887V441.222L619.642 423.251L621.813 428.646Z" fill="white"/>
<path d="M346.734 441.222V477.556H271.545L268.968 430.042L271.162 423.53L346.734 441.222Z" fill="white"/>
<path d="M602.831 395.804H285.598L319.433 260.01C320.813 254.402 323.655 249.477 327.539 245.963C331.423 242.45 336.142 240.533 341 240.498L551.093 238.088C556.169 238.029 561.116 240.017 565.145 243.735C569.174 247.453 572.054 252.688 573.326 258.606L602.831 395.804Z" fill="#CCCCCC"/>
<path d="M578.41 382.964L309.968 379.131C309.629 379.126 309.295 379.026 308.994 378.837C308.693 378.649 308.432 378.378 308.234 378.047C308.036 377.715 307.905 377.332 307.851 376.929C307.798 376.525 307.825 376.112 307.928 375.723L333.663 279.051C333.803 278.524 334.079 278.064 334.45 277.738C334.821 277.412 335.269 277.236 335.728 277.236H551.642C552.101 277.236 552.549 277.412 552.92 277.738C553.291 278.063 553.567 278.523 553.707 279.05L580.501 379.554C580.606 379.948 580.632 380.367 580.576 380.775C580.521 381.184 580.385 381.571 580.181 381.904C579.977 382.237 579.71 382.507 579.402 382.691C579.094 382.875 578.754 382.969 578.41 382.964Z" fill="white"/>
<path d="M480.392 254.659H408.037C407.427 254.659 406.874 253.937 406.593 252.773C406.314 251.581 406.354 250.313 406.709 249.151L412.675 230.984C412.98 230.058 413.476 229.505 414.003 229.505H474.425C474.953 229.505 475.449 230.058 475.753 230.984L481.72 249.151C482.074 250.313 482.115 251.581 481.835 252.773C481.555 253.937 481.002 254.659 480.392 254.659Z" fill="#15803D"/>
<path d="M285.798 393.009H238.21V380.416C238.214 376.344 239.559 372.441 241.95 369.562C244.341 366.684 247.583 365.064 250.964 365.06H285.798V393.009Z" fill="#CCCCCC"/>
<path d="M650.249 393.009H602.662V365.06H637.495C640.877 365.064 644.119 366.684 646.51 369.562C648.901 372.441 650.245 376.344 650.249 380.416V393.009Z" fill="#CCCCCC"/>
<path d="M232.643 589.327L0 689.951L0.987586 693.261L233.631 592.637L232.643 589.327Z" fill="#3F3D56"/>
<path d="M654.35 589.334L653.363 592.644L886.013 693.242L887 689.932L654.35 589.334Z" fill="#3F3D56"/>
<path d="M457.157 662.294H443.232V640.639H457.157V662.294ZM457.157 618.981H443.232V597.326H457.157V618.981Z" fill="#E6E6E6"/>
<path d="M457.157 752H443.232V730.345H457.157V752ZM457.157 708.687H443.232V687.032H457.157V708.687Z" fill="#E6E6E6"/>
<path d="M443.81 166.361C481.965 166.361 512.896 129.12 512.896 83.1804C512.896 37.2411 481.965 0 443.81 0C405.655 0 374.725 37.2411 374.725 83.1804C374.725 129.12 405.655 166.361 443.81 166.361Z" fill="#15803D"/>
<path d="M438.958 116.091C438.109 117.17 436.451 117.093 435.706 115.94L420.222 91.9679C418.095 88.6755 418.629 84.333 421.49 81.6538C425.179 78.1989 431.096 78.9263 433.839 83.172L438.364 90.1774L465.3 55.9408C468.491 51.885 474.581 51.7232 477.983 55.6037C480.601 58.5902 480.718 63.0185 478.262 66.1397L438.958 116.091Z" fill="white"/>
</g>
<defs>
<clipPath id="clip0_31_991">
<rect width="887" height="752" fill="white"/>
</clipPath>
</defs>
</svg>
